<svg width="61" height="21" viewBox="0 0 61 21" fill="none" xmlns="http://www.w3.org/2000/svg">
<path d="M11.5466 14.08C10.4333 14.08 9.54664 13.78 8.88664 13.18L9.19664 12.55C9.54997 12.85 9.90997 13.0633 10.2766 13.19C10.6433 13.3167 11.07 13.38 11.5566 13.38C12.13 13.38 12.57 13.27 12.8766 13.05C13.19 12.8233 13.3466 12.5067 13.3466 12.1C13.3466 11.86 13.27 11.6667 13.1166 11.52C12.97 11.3667 12.7733 11.2467 12.5266 11.16C12.2866 11.0733 11.9633 10.9833 11.5566 10.89C11.01 10.77 10.56 10.64 10.2066 10.5C9.85331 10.36 9.56664 10.16 9.34664 9.9C9.12664 9.63333 9.01664 9.28667 9.01664 8.86C9.01664 8.45333 9.12331 8.09667 9.33664 7.79C9.54997 7.47667 9.84997 7.23333 10.2366 7.06C10.63 6.88667 11.0866 6.8 11.6066 6.8C12.1 6.8 12.56 6.87667 12.9866 7.03C13.4133 7.18333 13.7733 7.40667 14.0666 7.7L13.7466 8.33C13.4133 8.04333 13.0733 7.83333 12.7266 7.7C12.3866 7.56667 12.0133 7.5 11.6066 7.5C11.0533 7.5 10.62 7.62 10.3066 7.86C9.99331 8.09333 9.83664 8.41667 9.83664 8.83C9.83664 9.19 9.97331 9.46 10.2466 9.64C10.52 9.82 10.94 9.97667 11.5066 10.11C12.12 10.2567 12.6 10.3933 12.9466 10.52C13.3 10.64 13.5933 10.8267 13.8266 11.08C14.06 11.3267 14.1766 11.6567 14.1766 12.07C14.1766 12.47 14.07 12.8233 13.8566 13.13C13.6433 13.43 13.3366 13.6633 12.9366 13.83C12.5433 13.9967 12.08 14.08 11.5466 14.08ZM19.8271 11.46H16.1371C16.1438 12.1 16.2904 12.5833 16.5771 12.91C16.8704 13.2367 17.2938 13.4 17.8471 13.4C18.4338 13.4 18.9738 13.2033 19.4671 12.81L19.7371 13.4C19.5171 13.6067 19.2338 13.77 18.8871 13.89C18.5471 14.01 18.1971 14.07 17.8371 14.07C17.0504 14.07 16.4338 13.84 15.9871 13.38C15.5404 12.9133 15.3171 12.2767 15.3171 11.47C15.3171 10.9567 15.4171 10.5033 15.6171 10.11C15.8171 9.71 16.0971 9.4 16.4571 9.18C16.8171 8.96 17.2271 8.85 17.6871 8.85C18.3538 8.85 18.8771 9.07 19.2571 9.51C19.6371 9.94333 19.8271 10.5433 19.8271 11.31V11.46ZM17.6971 9.48C17.2771 9.48 16.9338 9.60667 16.6671 9.86C16.4071 10.1133 16.2404 10.47 16.1671 10.93H19.0971C19.0571 10.4567 18.9171 10.0967 18.6771 9.85C18.4438 9.60333 18.1171 9.48 17.6971 9.48ZM25.4666 11.46H21.7766C21.7832 12.1 21.9299 12.5833 22.2166 12.91C22.5099 13.2367 22.9332 13.4 23.4866 13.4C24.0732 13.4 24.6132 13.2033 25.1066 12.81L25.3766 13.4C25.1566 13.6067 24.8732 13.77 24.5266 13.89C24.1866 14.01 23.8366 14.07 23.4766 14.07C22.6899 14.07 22.0732 13.84 21.6266 13.38C21.1799 12.9133 20.9566 12.2767 20.9566 11.47C20.9566 10.9567 21.0566 10.5033 21.2566 10.11C21.4566 9.71 21.7366 9.4 22.0966 9.18C22.4566 8.96 22.8666 8.85 23.3266 8.85C23.9932 8.85 24.5166 9.07 24.8966 9.51C25.2766 9.94333 25.4666 10.5433 25.4666 11.31V11.46ZM23.3366 9.48C22.9166 9.48 22.5732 9.60667 22.3066 9.86C22.0466 10.1133 21.8799 10.47 21.8066 10.93H24.7366C24.6966 10.4567 24.5566 10.0967 24.3166 9.85C24.0832 9.60333 23.7566 9.48 23.3366 9.48ZM35.2834 8.85C36.3968 8.85 36.9534 9.51333 36.9534 10.84V14H36.1434V10.88C36.1434 10.4067 36.0601 10.0633 35.8934 9.85C35.7334 9.63667 35.4701 9.53 35.1034 9.53C34.6768 9.53 34.3434 9.67333 34.1034 9.96C33.8634 10.2467 33.7434 10.6367 33.7434 11.13V14H32.9334V10.88C32.9334 10.4133 32.8501 10.0733 32.6834 9.86C32.5168 9.64 32.2501 9.53 31.8834 9.53C31.4568 9.53 31.1201 9.67333 30.8734 9.96C30.6334 10.2467 30.5134 10.6367 30.5134 11.13V14H29.7034V10.38C29.7034 9.86 29.6768 9.39 29.6234 8.97H30.3934L30.4734 9.85C30.6134 9.53 30.8201 9.28333 31.0934 9.11C31.3734 8.93667 31.6968 8.85 32.0634 8.85C32.4634 8.85 32.7901 8.93 33.0434 9.09C33.2968 9.25 33.4834 9.49667 33.6034 9.83C33.7568 9.53 33.9801 9.29333 34.2734 9.12C34.5734 8.94 34.9101 8.85 35.2834 8.85ZM40.7725 14.07C40.2992 14.07 39.8825 13.9633 39.5225 13.75C39.1625 13.5367 38.8825 13.2333 38.6825 12.84C38.4892 12.4467 38.3925 11.9867 38.3925 11.46C38.3925 10.9333 38.4892 10.4733 38.6825 10.08C38.8825 9.68667 39.1625 9.38333 39.5225 9.17C39.8825 8.95667 40.2992 8.85 40.7725 8.85C41.2458 8.85 41.6625 8.95667 42.0225 9.17C42.3825 9.38333 42.6592 9.68667 42.8525 10.08C43.0525 10.4733 43.1525 10.9333 43.1525 11.46C43.1525 11.9867 43.0525 12.4467 42.8525 12.84C42.6592 13.2333 42.3825 13.5367 42.0225 13.75C41.6625 13.9633 41.2458 14.07 40.7725 14.07ZM40.7725 13.4C41.2725 13.4 41.6558 13.2367 41.9225 12.91C42.1892 12.5767 42.3225 12.0933 42.3225 11.46C42.3225 10.8467 42.1858 10.3733 41.9125 10.04C41.6392 9.7 41.2592 9.53 40.7725 9.53C40.2792 9.53 39.8958 9.7 39.6225 10.04C39.3492 10.3733 39.2125 10.8467 39.2125 11.46C39.2125 12.0933 39.3458 12.5767 39.6125 12.91C39.8858 13.2367 40.2725 13.4 40.7725 13.4ZM46.9552 8.85C47.1218 8.85 47.2752 8.87 47.4152 8.91L47.3952 9.65C47.2418 9.59667 47.0652 9.57 46.8652 9.57C46.3785 9.57 46.0152 9.72333 45.7752 10.03C45.5418 10.33 45.4252 10.6967 45.4252 11.13V14H44.6152V10.38C44.6152 9.86 44.5885 9.39 44.5352 8.97H45.3052L45.3852 9.9C45.5118 9.56 45.7152 9.3 45.9952 9.12C46.2752 8.94 46.5952 8.85 46.9552 8.85ZM52.5505 11.46H48.8605C48.8672 12.1 49.0139 12.5833 49.3005 12.91C49.5939 13.2367 50.0172 13.4 50.5705 13.4C51.1572 13.4 51.6972 13.2033 52.1905 12.81L52.4605 13.4C52.2405 13.6067 51.9572 13.77 51.6105 13.89C51.2705 14.01 50.9205 14.07 50.5605 14.07C49.7739 14.07 49.1572 13.84 48.7105 13.38C48.2639 12.9133 48.0405 12.2767 48.0405 11.47C48.0405 10.9567 48.1405 10.5033 48.3405 10.11C48.5405 9.71 48.8205 9.4 49.1805 9.18C49.5405 8.96 49.9505 8.85 50.4105 8.85C51.0772 8.85 51.6005 9.07 51.9805 9.51C52.3605 9.94333 52.5505 10.5433 52.5505 11.31V11.46ZM50.4205 9.48C50.0005 9.48 49.6572 9.60667 49.3905 9.86C49.1305 10.1133 48.9639 10.47 48.8905 10.93H51.8205C51.7805 10.4567 51.6405 10.0967 51.4005 9.85C51.1672 9.60333 50.8405 9.48 50.4205 9.48Z" fill="#AAA9B1"/>
<rect x="0.5" y="0.5" width="60" height="20" rx="10" stroke="#E5E4EA"/>
</svg>
